<svg xmlns="http://www.w3.org/2000/svg" width="74" height="70.197" viewBox="0 0 74 70.197">
    <g id="Group_12" data-name="Group 12" transform="translate(-273.513 160.093)" opacity="0.8">
        <path id="Path_40" data-name="Path 40" d="M295.312-158.171a3.244,3.244,0,0,1,2.387-1.91c.746-.119,1.194.686,1.194,1.313a7.7,7.7,0,0,1-1.253,3.521c-1.134,2.328-2,4.8-3.641,6.8-.657.746-1.074,1.671-1.761,2.417a11.323,11.323,0,0,0-1.94,8.385c1.969.3,2.686-1.82,3.849-2.895a11.673,11.673,0,0,1,3.312-3.312,1.466,1.466,0,0,1,2,.686c.448,1.492-.686,2.895-.716,4.387.119.418.239,1.164.806,1.164,1.223.239,2.059-.925,3.163-1.074,1.4.388,1.074,2.059.686,3.074,1.522.865,3.193.03,4.745-.239,1.194-.358,2.029,1.343,1.223,2.149-1.164,2.059-3.551,2.656-5.431,3.82a7.943,7.943,0,0,1-2.865.716,5.814,5.814,0,0,0-2.417,3.849c-.03.985-.09,1.94-.03,2.924a10.008,10.008,0,0,0,1.582,3.491c.6.985,1.88,1.044,2.895,1.313a9.333,9.333,0,0,0,4.506-1.432,3.276,3.276,0,0,0,1.7-3.312,13.873,13.873,0,0,1-.239-4.148c.239-.836,1.552-1.731,2.178-.806a16.318,16.318,0,0,0,2.089,3.372,1.446,1.446,0,0,0,1.641-.269c1.074-1.4,1.223-3.4,2.656-4.536.656-.567,1.492.149,1.79.776.507,1.164-.3,2.3-.6,3.4-.328,1.194-.985,2.566-.3,3.76a2.424,2.424,0,0,0,3.074,1.432,16.827,16.827,0,0,0,1.79-2.984c1.044-1.522,2.119-3.4,4.148-3.611a7.148,7.148,0,0,1,2.686.9,2.663,2.663,0,0,1,.746,2.835,5.622,5.622,0,0,1-2.268,4c-.985.985-.3,2.626-1.044,3.73-.985.925-2.357.328-3.432-.06-1.432-.567-3.014-.328-4.446-.925a12.8,12.8,0,0,1-3.79-3.7c-.925-.627-1.969-1.85-3.163-1.164-1.373.537-1.462,2.238-2.536,3.1-1.641,1.91-4.267,2.357-6.625,2.536a8.345,8.345,0,0,1-6.058-3.432,15.158,15.158,0,0,1-1.582-3.193c-.567-1.164-.209-2.477-.239-3.73a14.249,14.249,0,0,1,2.477-5.371c.328-.627.836-1.283.627-2.029-.806-1.283-2.805.03-3.551-1.253-1.015-1.253.955-2.835-.269-4-1.462,1.194-2.477,2.805-3.82,4.118a2,2,0,0,1-2.089.388,4.044,4.044,0,0,1-.985-4.058c0-.746.716-1.582.149-2.238-.507-.776-1.492-.358-2.149-.06-3.1,2.059-5.162,5.222-7.371,8.146-1.223,1.641-1.7,3.76-3.1,5.282a1.385,1.385,0,0,1-2.178-1.313c.269-1.492,1.313-2.656,2.059-3.909a21.7,21.7,0,0,0,1.91-3.462c.806-1.462,1.7-2.835,2.626-4.237a24.488,24.488,0,0,1,4-3.462,27.717,27.717,0,0,0,2.895-1.641,49.423,49.423,0,0,0,5.759-8.206c1.015-1.88,1.462-4,2.536-5.819Z" transform="translate(0 0)" fill="#fff"/>
        <path id="Path_41" data-name="Path 41" d="M419.2.431c.507-.209,1.283-.239,1.492.388.358.507.06,1.134-.09,1.641a13.361,13.361,0,0,0-1.1,3.462,5.573,5.573,0,0,0,2.208,3.67c1.88,1.462,3.969,2.656,5.938,3.939a37.343,37.343,0,0,0,10.444,4.178c2.417.567,5.073.865,7.1,2.447a1.473,1.473,0,0,1-1.044,2.477c-2.029-.567-3.82-1.85-5.879-2.417a70.884,70.884,0,0,1-10.026-3.7,28.844,28.844,0,0,1-6.446-4.028c-1.671-.955-2.954-2.447-4.536-3.521-1.164-.149-2.417.179-3.521-.328-.836-.716-.119-1.91.179-2.745.985-1.074,2.119-2.059,3.074-3.193.6-.865,1.1-1.94,2.208-2.268Z" transform="translate(-98.11 -112.528)" fill="#fff"/>
    </g>
</svg>